<?xml version="1.0" standalone="no"?>
<!DOCTYPE svg PUBLIC "-//W3C//DTD SVG 20010904//EN"
 "http://www.w3.org/TR/2001/REC-SVG-20010904/DTD/svg10.dtd">
<svg version="1.0" xmlns="http://www.w3.org/2000/svg"
 width="500.000000pt" height="500.000000pt" viewBox="0 0 500.000000 500.000000"
 preserveAspectRatio="xMidYMid meet">
<metadata>
Created by potrace 1.11, written by Peter Selinger 2001-2013
</metadata>
<g transform="translate(0.000000,500.000000) scale(0.100000,-0.100000)"
fill="#000000" stroke="none">
<path d="M2247 4539 c-100 -13 -268 -53 -382 -89 -497 -160 -929 -529 -1174
-1005 -150 -292 -221 -584 -221 -915 0 -497 161 -944 475 -1318 461 -550 1168
-813 1882 -702 100 16 281 65 388 105 838 314 1385 1163 1316 2040 -76 950
-752 1700 -1686 1871 -106 19 -492 28 -598 13z m393 -89 c484 -37 913 -237
1245 -581 161 -167 269 -320 361 -514 395 -832 164 -1795 -569 -2373 -132
-105 -337 -218 -503 -278 -422 -152 -859 -161 -1278 -23 -670 220 -1173 800
-1301 1499 -23 126 -32 457 -15 588 68 546 390 1061 855 1365 288 188 600 294
929 317 61 4 118 8 126 9 8 0 76 -4 150 -9z"/>
<path d="M2342 4399 c-438 -38 -861 -236 -1174 -550 -368 -370 -564 -869 -545
-1389 17 -464 179 -864 491 -1213 254 -285 626 -497 1011 -576 600 -124 1240
62 1678 488 511 496 700 1211 501 1899 -133 458 -462 870 -884 1107 -127 71
-183 96 -330 145 -226 76 -512 110 -748 89z m323 -129 c596 -56 1121 -414
1395 -950 290 -570 251 -1251 -101 -1775 -405 -601 -1115 -891 -1824 -745
-626 130 -1151 625 -1320 1245 -42 155 -56 252 -62 430 -12 378 84 711 296
1026 359 535 978 829 1616 769z"/>
<path d="M2385 4220 c-401 -26 -788 -294 -975 -675 -27 -55 -58 -129 -70 -165
-30 -93 -60 -263 -60 -337 0 -63 -1 -66 -129 -292 -70 -125 -133 -243 -140
-261 -35 -101 21 -223 124 -271 24 -11 63 -19 97 -19 l56 0 10 -67 c6 -38 16
-102 22 -143 6 -41 17 -117 25 -169 17 -114 52 -174 126 -222 40 -25 64 -33
117 -37 58 -4 243 16 310 34 l22 6 0 -281 c0 -268 1 -282 20 -301 20 -20 33
-20 665 -20 l646 0 24 25 25 24 0 361 0 361 66 92 c268 374 431 848 410 1197
-13 222 -82 423 -211 615 -60 90 -247 272 -345 337 -255 168 -503 229 -835
208z m242 -480 c326 -44 583 -268 675 -587 30 -102 32 -313 5 -413 -78 -284
-303 -508 -584 -579 -110 -28 -279 -29 -389 -1 -323 81 -574 369 -602 694 -23
257 54 479 228 655 173 176 424 263 667 231z"/>
<path d="M2340 3597 c-115 -34 -204 -89 -295 -181 -133 -134 -195 -285 -195
-476 0 -151 31 -253 117 -382 116 -177 307 -284 523 -295 258 -12 468 96 612
316 73 112 101 209 102 356 1 128 -18 214 -69 315 -86 169 -266 312 -448 355
-95 23 -256 19 -347 -8z m295 -292 c30 -16 76 -49 102 -74 49 -49 103 -149
103 -192 0 -35 -31 -61 -67 -57 -23 2 -33 13 -60 68 -30 61 -99 140 -123 140
-7 0 -10 -85 -10 -252 0 -226 -2 -257 -19 -294 -47 -103 -176 -121 -254 -35
-49 54 -57 106 -25 168 30 60 64 85 127 91 l51 5 0 218 c0 190 2 220 17 234
23 24 88 15 158 -20z"/>
</g>
</svg>
